<?xml version="1.0" encoding="UTF-8"?>
<svg id="Capa_2" data-name="Capa 2" xmlns="http://www.w3.org/2000/svg" viewBox="0 0 690 835.03">
  <defs>
    <style>
      .cls-1 {
        fill: #a7c585;
      }

      .cls-2 {
        fill: #f6c914;
      }
    </style>
  </defs>
  <g id="Capa_1-2" data-name="Capa 1">
    <g>
      <g>
        <path class="cls-2" d="M376.99,458.62c-.53,.75-.63,1.99-.55,2.99,2.68,33.44-14,65.28-37.95,87.66-20.44,19.1-52.05,26.96-76.03,9.12-6.91-5.14-12.34-11.91-13.43-20.83-.99-8.11,1.94-15.35,12.09-19.29,5.53-2.15,11.66-2.7,17.4-4.37,10.77-3.14,19.71-9.78,28.76-16.02,10.39-7.16,19.95-16.49,26.7-27.46,7.76-12.62,8.48-26.22,8.78-40.66,.36-17.77-1.63-36.09,2.32-53.5,2.73-12.3,21.67-14.49,30.06-7.5,7.88,6.56,11.89,15.41,16.07,24.17,3.94,8.26,6.94,16.96,10.63,25.35,1.43,3.27,3.25,6.5,5.51,9.23,3.54,4.3,7.36,3.53,9.07-1.92,4.42-14.08,2.15-29.5,7.82-43.21,3.58-8.64,9.15-19.11,17.82-23.56,5.89-3.02,12.62-1.72,17.12,3.07,5.13,5.46,4.6,12.27,4.7,19.19,.15,10.59-.94,21.14-1.18,31.72-.34,15.17-1,30.33-2.44,45.44-1.38,14.43-3.46,28.8-6.65,42.94-2.61,11.59-6.56,36.13-19.88,40.79-3.25,1.14-6.94,.17-9.82-1.72-4.51-2.95-8.47-7.99-10.54-12.95-5.17-12.33-9.96-24.83-14.81-37.3-4.16-10.71-7.53-26.64-19.29-31.74-.38-.16-.78-.32-1.2-.28-.49,.04-.84,.28-1.1,.64Z"/>
        <path class="cls-2" d="M94.56,441.85c11.11-3.37,22.02-6.68,33.35-10.11-.67-3.45-1.79-7.88-2.33-12.38-1.15-9.55-2.62-19.13-2.74-28.71-.08-6.66,1.04-12.18,11.76-14.45,5.87-1.25,11.6-1.85,17.47-.54,10.16,2.27,10.78,10.24,12.18,18.9,3.9,24.13,7.93,48.95,12.79,73.19,2.5,12.48,5.24,24.92,8.33,37.27,2.95,11.79,7.11,22.76,3.65,34.97-2.29,8.09-7.36,13.53-15.25,15.85-7.1,2.09-17.35,5.45-24.57,2.83-3.57-1.3-6.43-4.12-8.46-7.34-6.61-10.47-8.79-24.05-11.07-35.98-1.01-5.26-1.65-10.59-2.35-15.91-.32-2.45-1.95-2.87-3.59-1.99-6.18,3.3-12.41,6.58-18.22,10.47-1.74,1.16-3.08,4.35-3,6.54,.55,14.1,4.09,29.41,1.43,43.37-.63,3.29-1.77,6.62-4.12,9.01-5.95,6.04-18.6,6.02-26.42,6.62-10.58,.81-18.41-5.67-23.04-14.88-10.6-21.06-8.16-46.91-7.97-69.66,.15-18.16,.13-36.27,.04-54.45-.06-11.49,1.22-23.01,3.16-34.33,.43-2.52,.93-5.09,2.2-7.31,5.64-9.79,23.82-12.75,33.88-12.64,8.92,.1,12.44,6.79,11.98,14.74-.54,9.12-.2,18.31-.04,27.46,.09,5.15,.64,10.29,.94,15.43,.09,1.51,.01,3.03,.01,4.04Z"/>
        <path class="cls-2" d="M683.92,386.9c.48,9.01-.86,18.27-1.68,27.23-1.39,15.18-2.21,30.39-3.52,45.56-1.22,14.17-1.89,29.03-7.4,42.37-3.96,9.57-10.77,16.49-20.19,20.78-35.61,16.23-76.65,17.9-114.95,22.54-8.91,1.08-17.88,1.62-26.83,2.43-5.36,.49-10.71,1.12-16.07,1.53-10.38,.8-15.3-6.71-15.9-15.39-1.07-15.67,3.4-29.66,14.5-41.2,7.18-7.47,16.05-11.13,26.23-11.97,12.08-1.01,23.59,2.5,35.32,4.35,9.97,1.56,19.95,3.41,29.99,4.08,12.23,.82,20.97-5.66,27.13-15.76,3.77-6.18,5.99-12.86,6.33-20.26,.63-13.66-15.49-21.37-23.28-30.54-13.47-15.88-15.11-41.81-.99-57.84,4.16-4.72,9.49-5.74,15.13-4.57,5.36,1.12,7.09,5.92,8.19,10.59,1.76,7.55,2.64,15.34,4.94,22.7,1.67,5.34,4.45,10.58,7.79,15.08,3.39,4.56,7.9,4.13,10.55-.88,3.2-6.03,5.58-12.53,7.93-18.98,2.9-7.97,5.32-16.14,11.77-22.21,6.65-6.25,16.99-5.67,21.01,3.02,2.57,5.56,3.68,11.38,4,17.31Z"/>
        <path class="cls-2" d="M146.16,750.26c-21.63,.27-41.5-7.15-50.64-30.74-4.14-10.68-4.61-21.89-4.28-33.32,.4-13.7-.2-27.44-.61-41.16-.33-11.22-1.53-22.43-1.37-33.63,.13-9.21,1.78-18.28,8-25.93,5.89-7.24,19.31-10.93,28.05-7.45,5.01,1.99,7.99,5.86,9.39,10.56,1.71,5.73,2.83,11.72,3.41,17.67,1.32,13.43,2.11,26.91,3.21,40.37,.7,8.68,1.27,17.39,2.45,26.01,.65,4.72,1.94,9.52,3.86,13.87,3.24,7.34,8.82,9.04,15.62,4.72,5.19-3.3,9.85-7.46,14.67-11.32,11.11-8.88,23.44-14.83,37.95-14.32,9.69,.35,17.37,4.84,22.26,13.58,4.8,8.59,7.99,17.64,8.41,27.55,.29,6.84-2.33,12.06-8.72,14.87-13.76,6.05-27.4,12.42-41.44,17.75-14.88,5.66-33.11,10.7-50.23,10.92Z"/>
        <path class="cls-2" d="M357.18,645.31c-2.54,3.94-4.7,7.35-6.93,10.71-5.53,8.31-11.2,8.51-17.17,.44-2.01-2.72-3.54-5.8-5.46-9-1.86,6.71-3.37,13.24-5.49,19.57-5.55,16.54-17.77,29.48-33.39,36.97-15.66,7.51-29.13-1.44-32.99-16.37-1.89-7.29,1.72-13.34,6.23-15.32,2.54-1.11,5.18-2,7.83-2.81,7.99-2.44,12.39-8.18,15.1-15.93,4.62-13.24,6.61-27.95,9.98-41.61,2.28-9.26,4.1-18.73,7.4-27.63,3.06-8.26,6.9-10.71,14.89-10.07,4.93,.39,7.89,3.9,9.83,7.4,4.81,8.64,8.77,17.77,13.07,26.7,.15,.32,.31,.63,1.03,2.06,2.45-5.3,4.7-9.77,6.61-14.39,2.05-4.95,3.64-10.08,5.71-15.02,1.14-2.71,2.69-5.28,4.35-7.72,5.77-8.51,16.02-8.5,20.84,.57,2.67,5.02,4.28,10.94,4.95,16.62,2.06,17.51,2.73,35.21,8,52.21,3.34,10.77,14.3,36.01,28.92,33.31,9.36-1.73,18.05,.73,20.59,9.94,1.75,6.34-.96,12.07-4.78,16.8-6.63,8.19-14.64,14.42-25.46,16.71-9.17,1.94-15.35-2.39-20.2-8.81-12.94-17.15-23.12-35.85-29.54-56.47-.49-1.58-1.08-3.15-1.73-4.67-.5-1.17-1.17-2.26-2.2-4.19Z"/>
        <path class="cls-2" d="M611.63,612.91c-.53,.16-1.95-38.57-1.3-42.53,2.14-13,12.43-23.45,26.52-21.67,6.08,.76,9.5,4.64,8.62,11.46-1.18,9.09-3.84,18-4.93,27.09-3.54,29.54-.53,60.06-5.92,89.31-1.01,5.45-4.39,9.71-10.05,10.84-9.29,1.85-16.87-6.64-21.81-13.24-8.6-11.5-11.24-26.23-19.14-37.69-2.23,4.11-3.05,9.84-4.19,14.44-4.69,18.92-15,36.42-29.12,49.88-16.03,15.27-43.31,20.89-56.94-.93-5.09-8.15-1.29-19.85,7.61-23.51,6.7-2.75,13.91-4.71,19.97-8.49,10.68-6.66,16.31-17.47,20.2-29.13,4-12.01,3.1-25.37,4.19-38.03,.88-10.12,3.45-28.49,14.56-32.74,4.41-1.68,9.57-2.26,14.31-1.95,4.32,.28,8.18,2.85,10.64,6.9,6.69,11.03,13.4,22.05,20.22,33.01,1.6,2.57,3.63,4.88,5.46,7.3,.37-.11,.74-.22,1.11-.33Z"/>
        <path class="cls-2" d="M322.4,432.44c.39,22.75-15.8,45.81-36.51,54.08-16.39,6.54-38.39,4.75-51.96-7.21-13.94-12.28-22.75-30.47-23.95-48.98-2.18-33.67,27.13-63.88,61.8-53.61,23.57,6.98,50.17,29.44,50.62,55.71Zm-59.96-7.41c-4.33,.11-6.53,2.14-6.42,5.94,.14,4.85,5.16,11.1,8.72,10.85,3.41-.24,7.68-5.66,7.54-9.59-.14-4-4.68-7.33-9.83-7.2Z"/>
        <path class="cls-2" d="M471.15,669.87c-14.33,.04-26.63-4.82-36.59-14.88-8.85-8.94-14.67-19.63-16.57-32.29-1.95-12.93-.84-25.4,5.59-36.95,6.02-10.83,14.92-19.07,26.64-22.87,8.88-2.87,18.44-2.41,27.69,0,10.16,2.65,19.74,6.69,27.51,13.77,9,8.19,15.38,18.26,17.8,30.4,3.25,16.29-1.81,30.26-12.03,42.88-7.2,8.88-15.88,15.43-27.06,18.16-4.22,1.03-8.64,1.2-12.97,1.77Zm3.78-54.94c0-3.97-1.91-6.15-5.33-6.11-5.2,.07-8.74,2.66-8.71,6.38,.03,3.38,4.23,7.49,7.59,7.41,3.51-.08,6.45-3.59,6.45-7.69Z"/>
        <path class="cls-2" d="M525.2,397.06c.12,.14,.26,.23,.44,.27,3.62,.9,7.31,.64,10.99,.39,5.93-.4,11.88-.95,17.84-.84,3.51,.05,6.06,4.54,6.43,7.54,.61,4.91-.34,10.39-3.19,14.55-3.64,5.32-9.93,6.12-15.64,8.02-4.82,1.6-9.76,2.86-14.48,4.7-2.42,.94-5.23,2.58-4.02,6,1.21,3.44,3.88,3.18,7.22,2.89,7.22-.62,14.54-.63,21.78-.14,5.4,.36,8.85,6.93,8.02,12.58-1.48,10.08-8.11,14.75-17.13,16.67-12.45,2.65-24.95,5.36-37.84,4.08-14.61-1.45-21.22-8.7-22.04-22.27-.66-10.84-.58-21.73-.87-32.6-.24-9.06-.5-18.11-.78-27.17-.14-4.49-1.17-9.13-.36-13.43,.53-2.81,1.74-5.46,3.72-7.55,2.26-2.4,4.76-3.31,7.84-4.37,11.83-4.08,24.51-6.33,36.8-8.74,7.19-1.41,14.65-2.91,22-1.97,3.58,.46,7.1,1.57,9.91,3.9,4.93,4.08,7.09,14.29,6.4,20.33-.11,.95-.31,1.9-.81,2.71-.78,1.27-2.12,1.59-3.49,1.87-11.76,2.4-23.74,4.35-35.62,6.05-1.7,.24-2.95,.51-3.29,2.25-.23,1.19-.75,3.25,.15,4.29Z"/>
        <path class="cls-2" d="M238.86,584.19c-3.9,.05-7.62-.15-10.03,.03-1.61,.12-3.26,.27-4.69,1.01-2.57,1.33-3.02,4.2-2.5,6.79,.69,3.4,3.44,4.62,7.54,3.91,5.29-.91,10.63-1.49,15.96-2.12,2.89-.34,5.06,.84,6.02,3.66,1.35,3.95,2.88,7.87,3.77,11.92,.85,3.88-1.93,6.77-6.68,7.77-4.87,1.03-9.75,2.01-14.59,3.17-1.46,.35-3.33,.85-4.06,1.93-1.06,1.55-1.82,3.78-1.56,5.55,.12,.79,3.14,1.86,4.64,1.61,4.37-.75,8.62-2.13,12.93-3.2,1.98-.49,3.98-.98,6-1.23,6.05-.75,10.1,3.54,10.54,10.8,.69,11.57-3.94,14.01-14.68,16.29-11.22,2.38-22.63,3.83-33.98,5.59-2.91,.45-5.89,.8-8.83,.75-9.71-.17-12.97-2.53-15.67-11.49-2.46-8.15-4.37-16.58-5.4-25.03-1.6-13-2.47-26.1-3.21-39.18-.43-7.78,3.34-13.2,11-15.35,7.68-2.15,15.67-3.24,23.53-4.75,9.01-1.73,18.04-3.31,27.02-5.16,5.13-1.06,8.35,.33,10.01,5.15,1.2,3.5,2.29,7.06,3.07,10.67,2.04,9.47-7.49,10.8-16.15,10.9Z"/>
      </g>
      <path class="cls-1" d="M236.38,326.45c.65,1.27,.96,3.04,1.4,4.45,.51,1.61,1.01,3.23,1.52,4.84,1.01,3.23,2.01,6.46,3,9.69,1.93,6.3,3.77,12.62,5.38,19l.05,.19c.19,.75,.49,1.54,.48,2.32-2.07,.14-4.63,.01-6.65-.54-9.53-2.61-15.31-9.23-19.16-18.01-6.23-14.24-4.3-27.92,2.29-41.43,1.51-3.09,3.25-3.13,6.45-2.45,7.88,1.66,15.08,4.3,20.13,10.83,4.82,6.23,7.56,13.28,8.71,21.25,1.19,8.24,.08,15.85-3.37,23.18-.79,1.67-6.08,6.47-6.11,6.5,0-1.28-4.9-18.66-7.4-25.11-1.74-4.5-3.8-8.86-5.95-13.17-.26-.51-.52-1.03-.78-1.54Z"/>
      <path class="cls-1" d="M266.43,366.99c3.32-6.84,6.36-13.12,9.4-19.4-.4-.22-4.49,5.27-6.1,8.25-1.62,2.98-3.2,5.98-4.98,9.33-2.44-5.45-1.84-12.05-.27-17.65,1.61-5.74,4.67-12.03,9.86-15.34,3.25-2.07,8.17-4.42,11.77-3.05,2.97,1.13,2.03,8.74,1.92,10.67-.37,7.07-1.68,13.88-6.02,19.68-.72,.96-1.5,1.86-2.33,2.72-2.99,3.05-8.86,8.09-13.25,4.8Z"/>
      <g>
        <path class="cls-2" d="M.01,376.11c.14-2.44,1.33-4.85,2.77-6.77,2.14-2.85,5.77-3.22,8.46-.75,2.44,2.24,4.26,5.06,5.54,8.1,1.46,3.46,1.69,7.14,2.98,10.63,.82,2.23,2.15,4.34,4.08,5.72,2.54,1.81,5.88,2.16,8.96,1.71-.33,.05-1.05,.94-1.35,1.16-.59,.44-1.22,.84-1.88,1.18-1.26,.65-2.78,1.25-4.21,1.35-2.34,.16-5.04-.27-7.31-.89-4.85-1.33-8.6-4.69-12.07-8.18-3.04-3.06-5.24-7.34-5.91-11.62-.09-.55-.11-1.1-.08-1.65Z"/>
        <path class="cls-2" d="M36.36,385.01c-2.15-1-6.12-4.7-7-5.89-3.73-5.04-5.16-6.99-5.4-13.54-.06-1.47,.33-3.06,.92-4.42,1.94-4.38,5.76-4.89,8.05-.66,1.83,3.39,2.79,7.42,3.31,11.28,.55,4.04,.12,8.22,.12,13.22Z"/>
        <path class="cls-2" d="M29.79,405.69c.21,.04-3.17,5.06-3.51,5.52-3.14,4.34-1.11,13.73-8.2,14.11-4.89,.26-7.78-4.33-6.02-9.14,2.58-7.04,10.48-11.61,17.72-10.49Z"/>
      </g>
      <g>
        <path class="cls-2" d="M658.12,542.38c1.01,.41,4.04-.69,5.15-.96,8.47-2.04,8.82-10.36,12.09-16.89,2.25-4.5,10.4-10.26,13.55-3.45,2.28,4.93,.81,10.66-2.65,14.62-6.15,7.04-19.54,10.17-28.14,6.68Z"/>
        <path class="cls-2" d="M661.08,553.03c1.28-1.18,3.44-1.94,5.06-2.57s3.46-1.15,5.25-1.44c3.62-.58,7.31-.27,10.81,.81,2.17,.67,4.19,2.61,5.68,4.45,2.09,2.59-.33,6.54-4,6.13-5.21-.59-10.46-1.72-15.55-2.96-2.63-.64-5.93-1.84-7.25-4.41Z"/>
        <path class="cls-2" d="M661.44,560.45c.23,.42,1.75,.84,2.2,1.06,.8,.39,1.6,.8,2.35,1.3,2.5,1.67,4.25,4.47,4.98,7.35,.63,2.51,.68,6.94-2.03,8.36-1.21,.64-2.79,.19-3.75-.78-1.53-1.56-1.77-4.07-1.46-6.13,.61-4.05-.3-7.57-2.28-11.17Z"/>
      </g>
      <g>
        <path class="cls-2" d="M280.08,111.69c-.08,0-.16,0-.24-.01-1.41-.13-2.45-1.39-2.32-2.8,4.03-42.98,52.22-43.48,52.7-43.48,1.42,0,2.57,1.15,2.57,2.57,0,1.42-1.15,2.57-2.57,2.57-1.79,0-44,.52-47.59,38.81-.12,1.33-1.25,2.33-2.56,2.33Z"/>
        <path class="cls-2" d="M240.22,208.12c-.86,0-1.69-.43-2.17-1.19-11.44-17.93-14.46-34.32-8.96-48.72,9.92-25.99,43.72-35.74,45.15-36.14,1.37-.38,2.79,.41,3.17,1.78,.38,1.37-.41,2.79-1.78,3.17-.33,.09-32.77,9.48-41.74,33.05-4.02,10.55-2.78,22.48,3.67,35.57,.56-7.73,2.83-17.7,10.41-21.91,1.24-.69,2.81-.24,3.5,1,.69,1.24,.24,2.81-1,3.5-8.24,4.58-8.35,21.07-7.69,27.04,.13,1.19-.57,2.31-1.7,2.71-.28,.1-.57,.15-.85,.15Z"/>
        <path class="cls-2" d="M320.54,109.61c-12.04,0-20.86-5.77-21.31-6.07-1.18-.79-1.5-2.38-.71-3.57,.79-1.18,2.38-1.5,3.56-.72h0c.12,.08,12.22,7.92,26.49,4.18,11.31-2.96,21.05-12.26,28.94-27.64,.65-1.26,2.2-1.76,3.46-1.11,1.26,.65,1.76,2.2,1.11,3.46-8.61,16.77-19.47,26.96-32.29,30.29-3.22,.84-6.33,1.18-9.25,1.18Z"/>
        <path class="cls-2" d="M361.33,265.28c-25.39,0-70.08-8.14-81.79-38.87-6.58-17.28,.28-35.58,7.86-51.2,.4-.83,1.14-1.93,2.06-3.32,1.09-1.64,3.36-5.04,3.48-6.11-2.61-31.19,10.09-53.19,10.63-54.11,.72-1.22,2.29-1.63,3.52-.91,1.22,.72,1.63,2.29,.91,3.52h0c-.12,.21-12.41,21.59-9.94,51.2,.19,2.29-1.59,5.16-4.33,9.27-.72,1.08-1.47,2.2-1.72,2.72-7.46,15.37-13.55,31.71-7.68,47.12,10.86,28.52,54.12,35.77,77.98,35.55,18.28-.17,35.52-6.39,49.85-18.01,1.1-.89,2.72-.73,3.62,.38,.89,1.1,.72,2.72-.38,3.62-15.24,12.36-33.58,18.98-53.04,19.16-.35,0-.7,0-1.05,0Z"/>
        <path class="cls-2" d="M280.08,200.4c-1,0-1.95-.58-2.36-1.56-7.34-17.13-8.17-29.86-2.45-37.83,6.47-9.04,18.65-8.21,19.16-8.17,1.42,.11,2.48,1.35,2.37,2.76-.11,1.41-1.34,2.46-2.76,2.37-.16-.01-9.87-.6-14.61,6.07-4.5,6.33-3.46,17.67,3.02,32.79,.56,1.31-.05,2.82-1.35,3.38-.33,.14-.67,.21-1.01,.21Z"/>
        <path class="cls-2" d="M438.23,184.98c-.34,0-.68-.07-1-.2-44.91-19.05-59.01-50.73-62.93-73.94-4.23-25.08,2.06-45.36,2.33-46.21,.43-1.35,1.87-2.1,3.23-1.67,1.35,.43,2.1,1.87,1.68,3.23-.06,.2-6.22,20.11-2.13,44,5.44,31.83,25.57,55.33,59.83,69.86,1.31,.55,1.92,2.06,1.36,3.37-.42,.98-1.37,1.57-2.37,1.57Z"/>
        <path class="cls-2" d="M437.28,240.5c-1.83,0-3.73-.08-5.69-.24-1.42-.12-2.47-1.36-2.35-2.78,.12-1.42,1.36-2.47,2.78-2.35,9.11,.76,30.51,.46,32.19-18.68,.83-9.51-4.07-18.96-11.65-22.47-5.89-2.73-12.15-1.17-17.64,4.38-1,1.01-2.63,1.02-3.64,.02-1.01-1-1.02-2.63-.02-3.64,7.03-7.1,15.58-9.08,23.46-5.43,9.48,4.39,15.63,15.99,14.61,27.59-1.32,15.02-13.16,23.6-32.05,23.6Z"/>
        <path class="cls-2" d="M496.09,184.97c-.68,0-1.37-.27-1.87-.81-.97-1.03-.92-2.66,.11-3.64,.19-.18,19.8-20.07-9.44-68.81-29.75-49.57-83.32-48.92-83.88-48.9-1.42,.04-2.6-1.09-2.63-2.51s1.09-2.6,2.51-2.63c.57-.01,57.14-.72,88.41,51.39,31.56,52.6,9.51,74.3,8.56,75.2-.5,.47-1.13,.7-1.76,.7Z"/>
        <path class="cls-2" d="M497.37,129.69c-1.12,0-2.15-.74-2.47-1.87-.39-1.37,.4-2.79,1.77-3.18,3.48-1,6.59-8.86,5.8-21.98-1.53-25.34-19.7-75.7-77.5-84.87-83.51-13.25-123.03,45.75-123.4,46.36-2.99,4.98-.12,10.01,0,10.22,.71,1.22,.31,2.8-.91,3.52-1.22,.72-2.78,.33-3.51-.88-.19-.32-4.6-7.84,0-15.5,.1-.17,10.74-17.19,34.94-31.89,27.11-16.48,59.51-22.32,93.67-16.9,61.02,9.69,80.21,62.87,81.83,89.64,.9,14.86-2.75,25.3-9.52,27.23-.24,.07-.47,.1-.71,.1Z"/>
        <path class="cls-2" d="M253.08,250.55c-.28,0-.56-.05-.84-.14-9.64-3.34-16.4-9.13-20.09-17.21-7.37-16.14,.21-35.51,.54-36.32,.53-1.32,2.02-1.96,3.34-1.43,1.32,.53,1.96,2.02,1.44,3.34-.07,.18-7.09,18.18-.63,32.3,3.09,6.74,8.83,11.61,17.08,14.46,1.34,.46,2.05,1.93,1.59,3.27-.37,1.06-1.36,1.73-2.43,1.73Z"/>
        <path class="cls-2" d="M292.94,283.98c-.23,0-.47-.03-.71-.1-55.75-15.93-43.07-69.42-42.93-69.95,.34-1.38,1.74-2.22,3.12-1.87,1.38,.34,2.21,1.74,1.87,3.12-.5,2.01-11.55,49.22,39.35,63.77,1.37,.39,2.16,1.81,1.77,3.18-.32,1.13-1.35,1.87-2.47,1.87Z"/>
        <path class="cls-2" d="M409.09,319.98c-13.9,0-24.78-6.72-24.95-6.83-.74-.47-1.19-1.29-1.2-2.16,0-.88,.44-1.7,1.18-2.17,16.86-10.84,23.24-41.75,23.3-42.06,.28-1.39,1.64-2.3,3.03-2.02,1.39,.28,2.3,1.63,2.02,3.02-.25,1.27-6.05,29.41-22.14,42.86,7.15,3.35,24.19,9.05,39.92-2.98,1.13-.86,2.74-.65,3.6,.48,.86,1.13,.65,2.74-.48,3.6-8.14,6.23-16.66,8.25-24.27,8.25Z"/>
        <path class="cls-2" d="M313.51,133.54c-.54,0-1.08-.17-1.54-.52-1.13-.85-1.36-2.46-.51-3.59,.25-.34,6.3-8.27,14.97-9.12,4.68-.45,9.13,1.19,13.24,4.89,1.06,.95,1.14,2.58,.19,3.63-.95,1.06-2.58,1.14-3.63,.19-2.99-2.69-6.1-3.9-9.27-3.6-6.41,.61-11.33,7.03-11.38,7.09-.51,.67-1.28,1.02-2.06,1.02Z"/>
        <path class="cls-2" d="M384.28,136.5c-.05,0-.1,0-.15,0l-6.48-.38c-1.42-.08-2.5-1.3-2.42-2.72,.08-1.42,1.31-2.51,2.72-2.42l6.48,.38c1.42,.08,2.5,1.3,2.42,2.72-.08,1.37-1.21,2.42-2.56,2.42Z"/>
        <path class="cls-2" d="M344.37,208.12c-.27,0-.54-.04-.81-.13-4.43-1.48-5.62-6.27-5.62-8.87,0-1.42,1.15-2.57,2.57-2.57s2.56,1.14,2.57,2.56c0,.07,.11,3.34,2.1,4,1.35,.45,2.08,1.91,1.63,3.25-.36,1.08-1.36,1.76-2.44,1.76Zm-1.29-9h0Z"/>
        <path class="cls-2" d="M342.25,238.32c-.3,0-.57-.02-.81-.06-4.34-.72-14.89-10.57-19.23-14.77-1.02-.99-1.05-2.62-.06-3.64,.99-1.02,2.62-1.04,3.64-.06,6.34,6.14,14.48,12.99,16.5,13.4,2.16,.27,13.15-3.67,22.09-7.48,1.31-.56,2.82,.05,3.37,1.36,.56,1.31-.05,2.82-1.36,3.37-5.74,2.44-19.06,7.88-24.14,7.88Z"/>
        <path class="cls-2" d="M478,295.06l4.61-5.1c.95-1.05,23.06-26.15,8.59-56.31-.62-1.28-.08-2.82,1.21-3.43,1.28-.61,2.82-.08,3.43,1.21,11.55,24.07,1.63,45.56-4.86,55.75,9.02-3.72,23.98-14.23,25.69-43.22,2.42-41.17-18.48-47.46-18.69-47.51-1.37-.38-2.17-1.8-1.79-3.17s1.8-2.16,3.17-1.79c1.03,.29,25.11,7.51,22.45,52.77-2.67,45.34-36.63,49.93-36.98,49.97l-6.83,.82Z"/>
        <path class="cls-2" d="M448.73,311.11c-1.83,0-2.94-.13-3.13-.16-1.15-.15-2.05-1.05-2.21-2.2-.16-1.15,.47-2.26,1.53-2.71,5.81-2.49,14.05-20.13,17.88-30.66,.49-1.34,1.97-2.02,3.3-1.54,1.33,.49,2.02,1.96,1.54,3.3-.87,2.38-7.22,19.46-14.67,28.54,7.68-.87,20.98-4.35,34.6-17.05,1.04-.97,2.66-.91,3.63,.13,.97,1.04,.91,2.67-.13,3.63-18.04,16.82-35.42,18.72-42.35,18.72Z"/>
        <path class="cls-2" d="M301.94,159.26c-.49,0-.99-.14-1.42-.43-1.18-.79-1.5-2.38-.71-3.57,.31-.46,7.61-11.23,18.22-11.43,6.53-.11,12.62,3.7,18.14,11.35,.83,1.15,.57,2.76-.58,3.59-1.15,.83-2.76,.57-3.59-.58-4.48-6.21-9.17-9.33-13.88-9.22-7.96,.15-13.98,9.05-14.04,9.14-.5,.74-1.31,1.15-2.14,1.15Z"/>
        <path class="cls-2" d="M409.94,178.55c-1.03,0-2.01-.63-2.4-1.65-3.64-9.47-8.25-14.78-13.68-15.79-8.38-1.55-16.63,7.49-16.72,7.58-.95,1.05-2.57,1.14-3.63,.19-1.06-.95-1.15-2.57-.2-3.63,.41-.46,10.23-11.27,21.46-9.21,7.33,1.34,13.24,7.74,17.57,19,.51,1.33-.15,2.81-1.48,3.32-.3,.12-.62,.17-.92,.17Z"/>
        <ellipse class="cls-2" cx="318.01" cy="176.62" rx="16.07" ry="13.5" transform="translate(93.21 462.61) rotate(-80.88)"/>
        <ellipse class="cls-2" cx="390.01" cy="188.19" rx="16.07" ry="13.5" transform="translate(142.38 543.44) rotate(-80.88)"/>
        <path class="cls-2" d="M430.51,17.83c-.66,0-1.32-.25-1.82-.75-1-1-1-2.63,0-3.64,.94-.94,.9-1.67,.73-2.27-.64-2.31-4.27-4.96-6.85-5.61-3.7-.93-8.14-.3-11.32,1.61-1.31,.79-1.61,1.37-1.61,1.51,0,.4,.82,1.31,1.62,1.8,1.2,.74,1.59,2.32,.85,3.53-.73,1.21-2.3,1.6-3.51,.87-.42-.25-4.11-2.57-4.11-6.21,0-1.58,.71-3.88,4.11-5.92,4.35-2.61,10.18-3.45,15.21-2.19,4.14,1.04,9.35,4.86,10.55,9.22,.73,2.64,0,5.22-2.06,7.27-.5,.5-1.16,.75-1.82,.75Z"/>
        <circle class="cls-2" cx="352.08" cy="200.4" r="1.29"/>
      </g>
      <g>
        <path class="cls-1" d="M240.02,835.03c-.7,0-1.24-.1-1.6-.31-.37-.2-.61-.49-.72-.86-.11-.37-.17-.81-.17-1.33v-32.68c0-.52,.06-.96,.17-1.33,.11-.37,.34-.65,.69-.86,.35-.2,.87-.31,1.57-.31,.81,0,1.41,.13,1.8,.39,.39,.26,.62,.72,.69,1.38v33.35c.04,.51,0,.97-.11,1.35-.11,.39-.34,.68-.69,.88-.35,.2-.89,.31-1.63,.31Zm11.45-11.12c-1.81,0-3.44-.33-4.89-.99-1.46-.66-2.7-1.59-3.73-2.79-1.03-1.2-1.83-2.61-2.4-4.23-.57-1.62-.84-3.41-.8-5.36,0-1.92,.28-3.69,.83-5.31,.55-1.62,1.35-3.03,2.41-4.23,1.05-1.2,2.3-2.12,3.76-2.76,1.46-.64,3.07-.97,4.84-.97s3.34,.33,4.81,1c1.47,.66,2.78,1.59,3.93,2.79,1.14,1.2,2.04,2.63,2.68,4.29,.64,1.66,.97,3.45,.97,5.36s-.32,3.69-.97,5.31c-.65,1.62-1.53,3.02-2.65,4.2-1.13,1.18-2.43,2.09-3.93,2.74-1.49,.64-3.11,.97-4.84,.97Zm-.66-4.53c1.55,0,2.95-.38,4.2-1.13,1.25-.75,2.24-1.8,2.96-3.12s1.08-2.84,1.08-4.54-.36-3.2-1.08-4.51c-.72-1.31-1.71-2.32-2.96-3.04-1.25-.72-2.65-1.08-4.2-1.08s-2.94,.37-4.17,1.11c-1.24,.74-2.21,1.75-2.93,3.04-.72,1.29-1.08,2.78-1.08,4.48s.36,3.21,1.08,4.54c.72,1.33,1.7,2.37,2.93,3.12,1.23,.76,2.63,1.13,4.17,1.13Z"/>
        <path class="cls-1" d="M298.03,824.08c-.81,0-1.4-.17-1.77-.5s-.57-.85-.61-1.55l.22-2.76c-.37,.59-.94,1.26-1.71,2.02-.77,.76-1.8,1.42-3.07,1.99-1.27,.57-2.79,.86-4.56,.86s-3.42-.35-4.95-1.05c-1.53-.7-2.88-1.68-4.04-2.93-1.16-1.25-2.07-2.69-2.74-4.31-.66-1.62-.99-3.35-.99-5.2s.33-3.51,.99-5.12c.66-1.6,1.58-3.01,2.76-4.23,1.18-1.22,2.53-2.17,4.07-2.88,1.53-.7,3.16-1.05,4.89-1.05,1.62,0,3,.21,4.15,.64,1.14,.42,2.13,.98,2.96,1.66,.83,.68,1.56,1.45,2.18,2.3l-.17-2.32c0-.81,.19-1.39,.58-1.74s1-.53,1.85-.53c.7,0,1.21,.11,1.52,.33,.31,.22,.52,.53,.64,.94,.11,.41,.17,.9,.17,1.49v21.35c0,.52-.06,.98-.17,1.38-.11,.41-.33,.71-.66,.91-.33,.2-.85,.3-1.55,.3Zm-10.73-4.59c1.51,0,2.88-.39,4.09-1.16,1.22-.77,2.19-1.82,2.93-3.12,.74-1.31,1.11-2.81,1.11-4.51s-.38-3.25-1.13-4.56c-.76-1.31-1.75-2.33-2.99-3.07-1.24-.74-2.61-1.11-4.12-1.11-1.7,0-3.18,.39-4.45,1.16-1.27,.77-2.28,1.82-3.01,3.15-.74,1.33-1.11,2.84-1.11,4.53s.37,3.14,1.11,4.45c.74,1.31,1.76,2.34,3.07,3.1,1.31,.76,2.81,1.13,4.51,1.13Z"/>
        <path class="cls-1" d="M321.42,824.42c-.89,0-1.82-.09-2.79-.28-.98-.18-1.91-.45-2.79-.8-.88-.35-1.68-.76-2.38-1.24-.7-.48-1.2-1.01-1.49-1.6-.19-.37-.3-.71-.33-1.02-.04-.31,0-.62,.14-.91,.13-.29,.36-.59,.69-.88,.37-.44,.73-.65,1.08-.64,.35,.02,.82,.27,1.41,.75,.4,.26,.88,.54,1.41,.86,.53,.31,1.11,.59,1.71,.83,.61,.24,1.22,.44,1.83,.61,.61,.17,1.21,.25,1.8,.25,1.7,0,3.06-.32,4.09-.97,1.03-.65,1.55-1.5,1.55-2.57,0-.63-.13-1.16-.39-1.6-.26-.44-.61-.81-1.05-1.11s-.95-.56-1.52-.8c-.57-.24-1.19-.45-1.85-.64-.66-.18-1.35-.39-2.05-.61-.96-.26-1.93-.55-2.9-.88-.98-.33-1.84-.76-2.6-1.3s-1.37-1.22-1.85-2.05c-.48-.83-.72-1.89-.72-3.18,0-1.51,.38-2.82,1.13-3.93,.75-1.11,1.83-1.96,3.24-2.57,1.4-.61,3.06-.91,4.98-.91,.81,0,1.57,.06,2.27,.17,.7,.11,1.37,.29,2.02,.53,.65,.24,1.26,.52,1.85,.83,.59,.31,1.16,.69,1.71,1.13,.66,.44,1.01,.92,1.05,1.44,.04,.52-.17,1.07-.61,1.66-.33,.44-.7,.73-1.11,.86-.41,.13-.81,.05-1.22-.25-.59-.44-1.22-.84-1.88-1.19-.66-.35-1.35-.64-2.05-.86-.7-.22-1.42-.33-2.16-.33-.92,0-1.74,.14-2.46,.42-.72,.28-1.27,.68-1.66,1.22-.39,.53-.58,1.13-.58,1.8,0,.59,.16,1.07,.47,1.44,.31,.37,.72,.68,1.22,.94,.5,.26,1.09,.49,1.77,.69,.68,.2,1.39,.4,2.13,.58,1.07,.26,2.16,.56,3.29,.91,1.13,.35,2.14,.81,3.04,1.38,.9,.57,1.64,1.33,2.21,2.27,.57,.94,.86,2.18,.86,3.73,0,2.43-.96,4.35-2.88,5.75-1.92,1.4-4.46,2.1-7.63,2.1Z"/>
        <path class="cls-1" d="M343.65,797.98l5.31,.06,7.69-.11c.52,0,.96,.05,1.33,.14,.37,.09,.65,.31,.86,.66,.2,.35,.31,.88,.31,1.58s-.09,1.23-.28,1.58c-.18,.35-.46,.58-.83,.69-.37,.11-.81,.17-1.33,.17l-7.58-.11-5.59,.11c-.77-.04-1.3-.24-1.58-.61-.28-.37-.41-.98-.41-1.82s.17-1.4,.5-1.77c.33-.37,.87-.55,1.6-.55Zm12.39,26.16c-1.73,0-3.21-.17-4.42-.5-1.22-.33-2.2-.85-2.96-1.55-.76-.7-1.3-1.61-1.63-2.74-.33-1.12-.5-2.52-.5-4.17v-24.39c0-.55,.06-1.01,.17-1.38,.11-.37,.33-.65,.66-.86,.33-.2,.85-.3,1.55-.3s1.23,.1,1.6,.3c.37,.2,.61,.49,.72,.86,.11,.37,.17,.79,.17,1.27v24.5c0,.96,.08,1.72,.25,2.29,.17,.57,.42,1.01,.77,1.3,.35,.3,.82,.48,1.41,.55,.59,.07,1.31,.11,2.16,.11,.59,0,1.07,.06,1.44,.17,.37,.11,.64,.33,.83,.66,.18,.33,.28,.83,.28,1.49,0,.7-.1,1.23-.3,1.58-.2,.35-.5,.57-.88,.66-.39,.09-.82,.14-1.3,.14Z"/>
        <path class="cls-1" d="M382.36,824.42c-2.21,0-4.18-.37-5.92-1.11-1.73-.74-3.2-1.74-4.4-3.01-1.2-1.27-2.12-2.74-2.76-4.4-.65-1.66-.97-3.45-.97-5.36,0-2.54,.59-4.81,1.77-6.8,1.18-1.99,2.82-3.57,4.92-4.73,2.1-1.16,4.5-1.74,7.19-1.74,1.84,0,3.49,.29,4.95,.86,1.46,.57,2.7,1.34,3.73,2.3,1.03,.96,1.83,2.03,2.38,3.21,.55,1.18,.83,2.36,.83,3.54,0,1.88-.44,3.21-1.33,3.98-.89,.77-1.97,1.16-3.26,1.16h-15.98c-.04,1.58,.39,2.96,1.3,4.12,.9,1.16,2.05,2.06,3.43,2.68,1.38,.63,2.77,.94,4.17,.94,1,0,1.87-.06,2.63-.17,.76-.11,1.41-.26,1.96-.44,.55-.18,1.02-.37,1.41-.55,.39-.18,.75-.37,1.08-.55,.33-.18,.64-.31,.94-.39,.29-.07,.61-.05,.94,.08,.33,.13,.59,.38,.77,.75,.22,.3,.37,.57,.44,.83,.07,.26,.11,.53,.11,.83,0,.55-.44,1.13-1.33,1.74-.89,.61-2.11,1.13-3.68,1.58s-3.34,.66-5.34,.66Zm-8.85-15.43h13.88c.66,0,1.18-.09,1.55-.28,.37-.18,.55-.68,.55-1.49,0-1-.31-1.92-.94-2.76-.63-.85-1.48-1.53-2.57-2.05-1.09-.52-2.35-.77-3.79-.77-1.59,0-3.05,.32-4.4,.97-1.35,.65-2.4,1.52-3.18,2.63-.77,1.11-1.14,2.36-1.1,3.76Z"/>
        <path class="cls-1" d="M413.55,824.14c-1.18,0-2.25-.09-3.21-.28-.96-.18-1.78-.5-2.46-.94-.68-.44-1.25-1.02-1.71-1.74-.46-.72-.8-1.58-1.02-2.57-.22-.99-.33-2.16-.33-3.48v-27.65c0-.55,.06-1.01,.17-1.38,.11-.37,.34-.65,.69-.86,.35-.2,.88-.3,1.58-.3,.74,0,1.28,.09,1.63,.28,.35,.19,.58,.46,.69,.83,.11,.37,.17,.81,.17,1.33v27.71c0,.74,.07,1.37,.22,1.91,.15,.53,.38,.99,.69,1.35,.31,.37,.71,.63,1.19,.77,.48,.15,1.05,.22,1.71,.22,.44,0,.82,.06,1.13,.17,.31,.11,.56,.33,.75,.66,.18,.33,.28,.85,.28,1.55,0,.74-.09,1.28-.28,1.63s-.43,.57-.75,.66c-.31,.09-.69,.14-1.13,.14Z"/>
        <path class="cls-1" d="M438.82,824.42c-2.21,0-4.18-.37-5.92-1.11-1.73-.74-3.2-1.74-4.4-3.01-1.2-1.27-2.12-2.74-2.76-4.4-.65-1.66-.97-3.45-.97-5.36,0-2.54,.59-4.81,1.77-6.8,1.18-1.99,2.82-3.57,4.92-4.73,2.1-1.16,4.5-1.74,7.19-1.74,1.84,0,3.49,.29,4.95,.86,1.45,.57,2.7,1.34,3.73,2.3,1.03,.96,1.83,2.03,2.38,3.21,.55,1.18,.83,2.36,.83,3.54,0,1.88-.44,3.21-1.33,3.98-.89,.77-1.97,1.16-3.26,1.16h-15.98c-.04,1.58,.4,2.96,1.3,4.12,.9,1.16,2.05,2.06,3.43,2.68,1.38,.63,2.77,.94,4.18,.94,.99,0,1.87-.06,2.63-.17,.75-.11,1.41-.26,1.96-.44,.55-.18,1.02-.37,1.41-.55,.39-.18,.75-.37,1.08-.55,.33-.18,.65-.31,.94-.39,.29-.07,.61-.05,.94,.08s.59,.38,.77,.75c.22,.3,.37,.57,.44,.83,.07,.26,.11,.53,.11,.83,0,.55-.44,1.13-1.33,1.74-.88,.61-2.11,1.13-3.68,1.58s-3.34,.66-5.34,.66Zm-8.85-15.43h13.88c.66,0,1.18-.09,1.55-.28s.55-.68,.55-1.49c0-1-.31-1.92-.94-2.76s-1.48-1.53-2.57-2.05c-1.09-.52-2.35-.77-3.79-.77-1.59,0-3.05,.32-4.4,.97-1.35,.65-2.41,1.52-3.18,2.63-.77,1.11-1.14,2.36-1.11,3.76Z"/>
        <path class="cls-1" d="M464.03,824.14c-.7,0-1.23-.1-1.58-.3-.35-.2-.57-.5-.66-.88-.09-.39-.14-.84-.14-1.35v-21.79c0-.55,.05-1.01,.14-1.38,.09-.37,.31-.64,.66-.8,.35-.17,.89-.25,1.63-.25,.66,0,1.17,.08,1.52,.25,.35,.17,.59,.41,.72,.72,.13,.31,.19,.67,.19,1.08l-.22,1.66c.26-.48,.56-.96,.91-1.44,.35-.48,.79-.91,1.33-1.3,.53-.39,1.18-.71,1.93-.97,.76-.26,1.69-.39,2.79-.39,.55,0,1.08,.05,1.58,.14,.5,.09,.98,.23,1.44,.42,.46,.18,.86,.4,1.19,.64s.6,.5,.8,.77c.2,.28,.3,.6,.3,.97,0,.81-.26,1.5-.77,2.07s-1.05,.86-1.6,.86c-.48,0-.83-.06-1.05-.17s-.43-.25-.64-.41c-.2-.17-.49-.31-.86-.44-.37-.13-.96-.19-1.77-.19-.55,0-1.14,.11-1.74,.33s-1.19,.54-1.74,.97c-.55,.42-1.01,.97-1.36,1.63-.35,.66-.52,1.46-.52,2.38v14.76c0,.52-.06,.96-.17,1.33-.11,.37-.34,.64-.69,.83-.35,.18-.9,.28-1.63,.28Z"/>
        <path class="cls-1" d="M490.25,793.73c-.59,.15-1.05,.11-1.38-.11-.33-.22-.61-.7-.83-1.44-.26-.77-.3-1.36-.14-1.77,.17-.41,.6-.72,1.3-.94l8.85-2.99c.55-.11,.99-.05,1.33,.19,.33,.24,.61,.71,.83,1.41,.26,.77,.28,1.36,.08,1.77-.2,.41-.66,.72-1.36,.94l-8.68,2.93Zm1.33,30.41c-.7,0-1.23-.1-1.57-.3-.35-.2-.57-.49-.67-.86-.09-.37-.14-.81-.14-1.33v-21.84c0-.48,.05-.91,.14-1.3,.09-.39,.32-.67,.69-.86,.37-.18,.9-.28,1.6-.28,.74,0,1.27,.1,1.6,.31s.55,.5,.66,.88c.11,.39,.17,.84,.17,1.35v21.79c0,.52-.06,.96-.17,1.33-.11,.37-.34,.64-.69,.83-.35,.18-.89,.28-1.63,.28Z"/>
        <path class="cls-1" d="M528.95,824.08c-.81,0-1.4-.17-1.77-.5-.37-.33-.57-.85-.61-1.55l.22-2.76c-.37,.59-.94,1.26-1.71,2.02-.78,.76-1.8,1.42-3.07,1.99-1.27,.57-2.79,.86-4.56,.86s-3.42-.35-4.95-1.05c-1.53-.7-2.88-1.68-4.04-2.93-1.16-1.25-2.07-2.69-2.74-4.31-.66-1.62-.99-3.35-.99-5.2s.33-3.51,.99-5.12c.67-1.6,1.58-3.01,2.76-4.23,1.18-1.22,2.54-2.17,4.07-2.88,1.53-.7,3.16-1.05,4.89-1.05,1.62,0,3,.21,4.15,.64,1.14,.42,2.13,.98,2.96,1.66,.83,.68,1.56,1.45,2.18,2.3l-.17-2.32c0-.81,.19-1.39,.58-1.74,.39-.35,1-.53,1.85-.53,.7,0,1.21,.11,1.52,.33,.31,.22,.52,.53,.64,.94,.11,.41,.17,.9,.17,1.49v21.35c0,.52-.06,.98-.17,1.38-.11,.41-.33,.71-.66,.91s-.85,.3-1.55,.3Zm-10.73-4.59c1.51,0,2.88-.39,4.09-1.16,1.22-.77,2.19-1.82,2.93-3.12,.74-1.31,1.1-2.81,1.1-4.51s-.38-3.25-1.13-4.56c-.76-1.31-1.75-2.33-2.99-3.07-1.24-.74-2.61-1.11-4.12-1.11-1.7,0-3.18,.39-4.45,1.16-1.27,.77-2.28,1.82-3.01,3.15s-1.1,2.84-1.1,4.53,.37,3.14,1.1,4.45c.74,1.31,1.76,2.34,3.07,3.1,1.31,.76,2.81,1.13,4.51,1.13Z"/>
      </g>
    </g>
  </g>
</svg>